name analog
datacolumns 19
datarows 33
range 0.0 0.016
endheader
time	ground_force_vx	ground_force_vy	ground_force_vz	ground_force_px	ground_force_py	ground_force_pz	l_ground_force_vx	l_ground_force_vy	l_ground_force_vz	l_ground_force_px	l_ground_force_py	l_ground_force_pz	ground_torque_x	ground_torque_y	ground_torque_z	l_ground_torque_x	l_ground_torque_y	l_ground_torque_z
0.0	-0.0	-0.0	-0.0	5.026700973510742	22.19699478149414	-431.7490539550781	-7.008152008056641	-27.967609405517575	-285.9952087402344	-0.0	-0.0	-0.0	-0.0	-0.0	-0.0	94915.2265625	14693.5556640625	-5499.93505859375
0.0005	-0.0	-0.0	-0.0	5.084999084472656	22.34452438354492	-433.43359375	-7.49247407913208	-28.02541160583496	-285.72637939453125	-0.0	-0.0	-0.0	-0.0	-0.0	-0.0	94931.1875	14693.4404296875	-5552.80615234375
0.001	-0.0	-0.0	-0.0	5.520683765411377	22.481578826904297	-434.0419006347656	-7.117321968078613	-27.94020652770996	-286.2237854003906	-0.0	-0.0	-0.0	-0.0	-0.0	-0.0	94525.4765625	14604.7734375	-5546.7734375
0.0015	-0.0	-0.0	-0.0	5.016599178314209	22.539594650268555	-433.39300537109375	-7.253750324249268	-27.587032318115234	-284.08819580078125	-0.0	-0.0	-0.0	-0.0	-0.0	-0.0	94372.484375	14775.63671875	-5444.11865234375
0.002	-0.0	-0.0	-0.0	5.169558048248291	22.833574295043945	-434.8699340820313	-7.274284362792969	-27.546119689941406	-284.3560791015625	-0.0	-0.0	-0.0	-0.0	-0.0	-0.0	94243.171875	14678.4228515625	-5388.24365234375
0.0025	-0.0	-0.0	-0.0	5.489192008972168	22.502683639526367	-431.3155822753906	-6.940093994140625	-27.546085357666016	-284.0468444824219	-0.0	-0.0	-0.0	-0.0	-0.0	-0.0	93994.125	14405.962890625	-5534.93701171875
0.003	-0.0	-0.0	-0.0	5.210906982421875	22.591964721679688	-432.0222473144531	-7.113027095794678	-27.60341453552246	-283.2027587890625	-0.0	-0.0	-0.0	-0.0	-0.0	-0.0	94078.0546875	14673.455078125	-5407.4599609375
0.0035	-0.0	-0.0	-0.0	5.042837619781494	22.69665908813477	-432.9568786621094	-7.16477108001709	-27.56124496459961	-282.7718811035156	-0.0	-0.0	-0.0	-0.0	-0.0	-0.0	93900.5546875	14636.33203125	-5318.4814453125
0.004	-0.0	-0.0	-0.0	5.509919166564941	22.22513961791992	-433.6213073730469	-6.820303440093994	-27.32254409790039	-283.1619873046875	-0.0	-0.0	-0.0	-0.0	-0.0	-0.0	93747.8828125	14340.5146484375	-5367.03515625
0.0045000000000000005	-0.0	-0.0	-0.0	5.227229118347168	22.539396286010746	-433.6210021972656	-6.418570041656494	-27.545948028564453	-282.4224853515625	-0.0	-0.0	-0.0	-0.0	-0.0	-0.0	93845.0390625	14369.3544921875	-5335.42138671875
0.005	-0.0	-0.0	-0.0	5.688189506530762	22.189395904541016	-432.64544677734375	-6.799224376678467	-27.613319396972656	-283.3871154785156	-0.0	-0.0	-0.0	-0.0	-0.0	-0.0	93857.1328125	14457.984375	-5337.330078125
0.0055	-0.0	-0.0	-0.0	5.656135082244873	23.256242752075195	-434.3421936035156	-6.820202827453613	-27.810850143432617	-282.46368408203125	-0.0	-0.0	-0.0	-0.0	-0.0	-0.0	93727.4453125	14463.458984375	-5213.6826171875
0.006	-0.0	-0.0	-0.0	5.441841125488281	22.5927734375	-432.730224609375	-6.518147945404053	-27.20307922363281	-282.46368408203125	-0.0	-0.0	-0.0	-0.0	-0.0	-0.0	93600.9765625	14510.5966796875	-5314.34228515625
0.006500000000000001	-0.0	-0.0	-0.0	5.798683166503906	22.482328414916992	-432.8580932617188	-6.731417179107666	-26.959226608276367	-282.6876220703125	-0.0	-0.0	-0.0	-0.0	-0.0	-0.0	93653.6796875	14345.0791015625	-5173.177734375
0.007	-0.0	-0.0	-0.0	6.201660633087158	23.15238571166992	-435.8666687011719	-6.887556076049805	-27.259654998779297	-283.4274597167969	-0.0	-0.0	-0.0	-0.0	-0.0	-0.0	93554.6015625	14345.984375	-5347.79541015625
0.0075	-0.0	-0.0	-0.0	5.944684505462647	23.073976516723636	-434.2293090820313	-6.553932189941406	-26.84979248046875	-282.2404479980469	-0.0	-0.0	-0.0	-0.0	-0.0	-0.0	93407.0546875	14208.15625	-5269.14892578125
0.008	-0.0	-0.0	-0.0	6.268880844116211	23.611177444458008	-435.9625854492188	-6.940847873687744	-27.015779495239254	-281.8074951171875	-0.0	-0.0	-0.0	-0.0	-0.0	-0.0	93524.1484375	14296.02734375	-5255.17529296875
0.0085	-0.0	-0.0	-0.0	6.201255798339844	22.849964141845703	-436.2202758789063	-6.784935474395752	-26.98370742797852	-280.97125244140625	-0.0	-0.0	-0.0	-0.0	-0.0	-0.0	93397.71875	14341.5185546875	-5309.81689453125
0.009000000000000001	-0.0	-0.0	-0.0	6.033591747283936	22.973848342895508	-435.6867980957031	-7.298396110534668	-27.082599639892575	-282.114501953125	-0.0	-0.0	-0.0	-0.0	-0.0	-0.0	93371.984375	14429.7109375	-5303.0693359375
0.0095	-0.0	-0.0	-0.0	5.966158866882324	22.89557838439941	-436.6170654296875	-6.919441223144531	-26.496505737304688	-281.8168334960937	-0.0	-0.0	-0.0	-0.0	-0.0	-0.0	93423.078125	14151.1015625	-5511.0986328125
0.01	-0.0	-0.0	-0.0	6.412184238433838	23.02853202819824	-437.8128051757813	-7.176803588867188	-26.651582717895508	-282.9995422363281	-0.0	-0.0	-0.0	-0.0	-0.0	-0.0	93182.8203125	14508.9521484375	-5358.64453125
0.0105	-0.0	-0.0	-0.0	6.590569019317627	23.15190696716309	-437.8123779296875	-7.352128028869629	-26.65151023864746	-281.38043212890625	-0.0	-0.0	-0.0	-0.0	-0.0	-0.0	93257.1171875	14419.2958984375	-5507.7060546875
0.011	-0.0	-0.0	-0.0	6.445250034332275	23.21805191040039	-436.8836059570313	-7.44080114364624	-26.408184051513672	-281.50787353515625	-0.0	-0.0	-0.0	-0.0	-0.0	-0.0	93011.9765625	14326.609375	-5336.4482421875
0.0115	-0.0	-0.0	-0.0	6.523451805114746	23.173904418945312	-438.38616943359375	-7.174631595611572	-26.662254333496094	-279.10137939453125	-0.0	-0.0	-0.0	-0.0	-0.0	-0.0	92916.65625	14224.396484375	-5284.36328125
0.012	-0.0	-0.0	-0.0	6.724107265472412	22.828479766845703	-438.9587097167969	-7.263320446014404	-26.275203704833984	-279.493896484375	-0.0	-0.0	-0.0	-0.0	-0.0	-0.0	92813.21875	14299.34765625	-5318.0361328125
0.0125	-0.0	-0.0	-0.0	6.913726329803467	23.207305908203125	-437.6781921386719	-7.396698474884033	-26.341768264770508	-280.0628967285156	-0.0	-0.0	-0.0	-0.0	-0.0	-0.0	92536.296875	14328.7451171875	-5407.1279296875
0.013000000000000001	-0.0	-0.0	-0.0	7.370927333831787	23.26303482055664	-438.1644592285156	-6.941519260406494	-26.297882080078125	-279.015625	-0.0	-0.0	-0.0	-0.0	-0.0	-0.0	92508.9375	14266.2841796875	-5417.8544921875
0.0135	-0.0	-0.0	-0.0	7.337677001953125	23.440847396850582	-440.28228759765625	-7.429576873779297	-26.408184051513672	-280.0639343261719	-0.0	-0.0	-0.0	-0.0	-0.0	-0.0	92688.8671875	14247.029296875	-5347.81884765625
0.014	-0.0	-0.0	-0.0	7.594138622283935	22.995643615722656	-438.9581604003906	-6.941645622253418	-26.352916717529297	-279.40869140625	-0.0	-0.0	-0.0	-0.0	-0.0	-0.0	92330.4375	14157.4501953125	-5288.11669921875
0.0145	-0.0	-0.0	-0.0	7.214768409729004	23.107318878173828	-439.4856872558594	-6.997012615203857	-26.319862365722656	-279.8442077636719	-0.0	-0.0	-0.0	-0.0	-0.0	-0.0	92782.6484375	14088.9716796875	-5299.310546875
0.015	-0.0	-0.0	-0.0	7.226051330566406	23.396100997924805	-437.50537109375	-7.174408435821533	-26.34148597717285	-278.3178100585937	-0.0	-0.0	-0.0	-0.0	-0.0	-0.0	92601.21875	14180.4267578125	-5377.25048828125
0.0155	-0.0	-0.0	-0.0	7.638064861297607	23.084774017333984	-438.55963134765625	-6.7420196533203125	-26.099512100219727	-278.01287841796875	-0.0	-0.0	-0.0	-0.0	-0.0	-0.0	92290.8125	14088.388671875	-5387.80322265625
0.016	-0.0	-0.0	-0.0	7.816372871398926	23.47169685363769	-438.16845703125	-6.896960735321045	-26.12083625793457	-277.7525329589844	-0.0	-0.0	-0.0	-0.0	-0.0	-0.0	92143.0625	14166.689453125	-5191.87548828125
